<svg width="46" height="65" viewBox="0 0 46 65" fill="none" xmlns="http://www.w3.org/2000/svg">
<path d="M33.3696 23.2578C33.3696 17.6672 28.8015 13.1191 23.1867 13.1191C17.572 13.1191 13.0039 17.6672 13.0039 23.2578C13.0039 28.8484 17.572 33.3964 23.1867 33.3964C28.8015 33.3964 33.3696 28.8484 33.3696 23.2578Z" fill="#C0B08A"/>
<path d="M23.1802 64.275L27.3074 58.8762C31.6153 53.1731 45.6702 33.7416 45.6702 23.1178C45.6712 9.2899 36.6354 0 23.1852 0C9.735 0 0.699219 9.2899 0.699219 23.1188C0.699219 34.5592 17.2039 56.4314 19.0811 58.8812L23.1802 64.275ZM8.9847 23.2604C8.9847 15.455 15.3547 9.10408 23.1852 9.10408C31.0157 9.10408 37.3857 15.455 37.3857 23.2604C37.3857 31.0658 31.0157 37.4167 23.1852 37.4167C15.3547 37.4167 8.9847 31.0668 8.9847 23.2604Z" fill="#C0B08A"/>
</svg>
