<svg width="100" height="100" viewBox="0 0 100 100" fill="none" xmlns="http://www.w3.org/2000/svg">
<circle cx="50" cy="50" r="50" fill="#F8F8F8"/>
<path d="M33.9682 65.6883C38.7428 69.6766 44.4228 71.6986 51.0084 71.7544C58.8014 71.6428 62.7527 68.812 62.8625 63.2618C62.9174 58.7157 60.3106 55.9825 55.0421 55.0621C52.6274 54.7274 49.9794 54.3509 47.0982 53.9325C41.9395 53.0679 38.0156 51.1296 35.3265 48.1174C32.555 45.0216 31.1693 41.2564 31.1693 36.8219C31.1693 31.4948 32.9118 27.1997 36.3966 23.9366C39.7717 20.7013 44.56 19.0558 50.7615 19C58.2251 19.1673 64.7147 21.2731 70.2301 25.3171L65.1674 32.9312C60.6673 29.919 55.7144 28.3572 50.3087 28.2456C47.5098 28.2456 45.1774 28.9568 43.3115 30.3792C41.3633 31.8574 40.3617 34.0607 40.3068 36.9892C40.3068 38.7463 40.9791 40.336 42.3237 41.7584C43.6682 43.2087 45.8223 44.2128 48.7858 44.7706C50.4322 45.0495 52.6823 45.3702 55.536 45.7328C61.1612 46.5137 65.3184 48.5637 68.0075 51.8826C70.6692 55.1457 72 58.9388 72 63.2618C71.6982 74.9199 64.6735 80.8327 50.9261 81C42.0355 81 34.3935 78.211 28 72.6329L33.9682 65.6883Z" fill="#2B2B2B"/>
</svg>
