<svg width="120" height="39" viewBox="0 0 120 39" fill="none" xmlns="http://www.w3.org/2000/svg">
<path d="M86.3703 38.2043L76.9102 0.311523H82.9657L88.9173 27.2367H89.0213L96.3763 0.311523H100.535L107.864 27.2367H107.968L113.945 0.311523H120.001L110.541 38.2043H105.733L98.5074 10.8893H98.4035L91.1524 38.2043H86.3703Z" fill="#3A3939"/>
<path d="M66.5527 38.2043V0.311523H72.2964V38.2043H66.5527Z" fill="#3A3939"/>
<path d="M53.7689 38.2043V22.2883H38.773V38.2043H33.0293V0.311523H38.773V17.3933H53.7689V0.311523H59.5126V38.2043H53.7689Z" fill="#3A3939"/>
<path d="M3.76848 29.0043C6.78327 31.482 10.3698 32.7381 14.5281 32.7728C19.4488 32.7035 21.9438 30.9449 22.0131 27.4969C22.0478 24.6727 20.4018 22.9747 17.0751 22.403C15.5504 22.1951 13.8784 21.9612 12.0591 21.7013C8.80179 21.1641 6.32412 19.96 4.62614 18.0887C2.87617 16.1655 2.00119 13.8264 2.00119 11.0715C2.00119 7.76221 3.10142 5.09395 5.30186 3.06676C7.43301 1.05691 10.4565 0.0346527 14.3722 0C19.085 0.103958 23.1827 1.4121 26.6653 3.92442L23.4685 8.65451C20.627 6.78327 17.4996 5.81299 14.0863 5.74369C12.319 5.74369 10.8463 6.18551 9.6681 7.06915C8.43793 7.98745 7.80552 9.35623 7.77087 11.1755C7.77087 12.2671 8.19536 13.2547 9.04436 14.1383C9.89335 15.0393 11.2535 15.663 13.1247 16.0096C14.1643 16.1828 15.5851 16.3821 17.387 16.6073C20.9389 17.0924 23.5638 18.3659 25.2618 20.4278C26.9425 22.455 27.7828 24.8113 27.7828 27.4969C27.5922 34.7393 23.1567 38.4125 14.4762 38.5165C8.86243 38.5165 4.03704 36.7838 0 33.3186L3.76848 29.0043Z" fill="#3A3939"/>
</svg>
